<mxfile host="app.diagrams.net" modified="2024-05-22T09:26:07.068Z" agent="Mozilla/5.0 (Windows NT 10.0; WOW64) AppleWebKit/537.36 (KHTML, like Gecko) Chrome/124.0.6367.203 Safari/537.36 NetHelper70" version="24.4.4" etag="kHC2X5PA7wlkmFyY-Wuw" type="github">
  <diagram name="페이지-1" id="O0L5PvCRpyit8uk-oVQF">
    <mxGraphModel>
      <root>
        <mxCell id="0" />
        <mxCell id="1" parent="0" />
      </root>
    </mxGraphModel>
  </diagram>
</mxfile>
